<?xml version="1.0" encoding="utf-8"?>
<!-- Generator: Adobe Illustrator 23.1.1, SVG Export Plug-In . SVG Version: 6.00 Build 0)  -->
<svg version="1.1" id="Ebene_1" xmlns="http://www.w3.org/2000/svg" xmlns:xlink="http://www.w3.org/1999/xlink" x="0px" y="0px"
	 viewBox="0 0 63.5 61.7" style="enable-background:new 0 0 63.5 61.7;" xml:space="preserve">
<style type="text/css">
	.st0{fill:#020203;}
</style>
<path class="st0" d="M31.9,61.7C11.2,61.7,0,48.8,0,32.1C0,14.3,12.6,0,35.1,0c16.4,0,28.4,10.7,28.4,25.4c0,23.1-27.3,29.1-26,16
	c-1.9,2.9-4.9,6.2-10.7,6.2c-6.7,0-10.8-4.9-10.8-12.7c0-11.8,7.7-21.7,16.9-21.7c4.4,0,7.4,2.3,8.7,5.9l1.2-4.3H49
	c-0.6,2.2-6.1,22.6-6.1,22.6c-1.7,7.1,3.6,7.2,8.3,3.4c8.8-6.8,9.3-24.7-2.6-32.1C35.7,1,6.7,5.7,6.7,31.6c0,14.9,10.5,24.8,26,24.8
	c9.1,0,14.7-2.5,19.3-5.2l3.1,4.5C50.6,58.4,43.3,61.7,31.9,61.7z M25.7,23.8c-1.9,3.5-3.1,8.1-3.1,11.7c0,9.6,9.3,9.6,13.9,0.6
	c1.9-3.7,3.1-8.4,3.1-12C39.6,16.4,30.3,15.1,25.7,23.8z"/>
</svg>
